<?xml version="1.0" encoding="UTF-8" standalone="no"?>
<!DOCTYPE svg PUBLIC "-//W3C//DTD SVG 1.1//EN"
 "http://www.w3.org/Graphics/SVG/1.1/DTD/svg11.dtd">
<!-- Generated by graphviz version 2.36.0 (20140111.2315)
 -->
<!-- Title: Character Pages: 1 -->
<svg width="340pt" height="358pt"
 viewBox="0.00 0.00 340.00 358.00" xmlns="http://www.w3.org/2000/svg" xmlns:xlink="http://www.w3.org/1999/xlink">
<g id="graph0" class="graph" transform="scale(1 1) rotate(0) translate(4 354)">
<title>Character</title>
<!-- Node1 -->
<g id="node1" class="node"><title>Node1</title>
<polygon fill="#bfbfbf" stroke="black" points="113.5,-160.5 113.5,-349.5 228.5,-349.5 228.5,-160.5 113.5,-160.5"/>
<text text-anchor="middle" x="171" y="-337.5" font-family="Helvetica,sans-Serif" font-size="10.00">Character</text>
<polyline fill="none" stroke="black" points="113.5,-330.5 228.5,-330.5 "/>
<text text-anchor="start" x="121.5" y="-318.5" font-family="Helvetica,sans-Serif" font-size="10.00"># character_id</text>
<text text-anchor="start" x="121.5" y="-307.5" font-family="Helvetica,sans-Serif" font-size="10.00"># hit_points</text>
<polyline fill="none" stroke="black" points="113.5,-300.5 228.5,-300.5 "/>
<text text-anchor="start" x="121.5" y="-288.5" font-family="Helvetica,sans-Serif" font-size="10.00">+ set_hp()</text>
<text text-anchor="start" x="121.5" y="-277.5" font-family="Helvetica,sans-Serif" font-size="10.00">+ attack()</text>
<text text-anchor="start" x="121.5" y="-266.5" font-family="Helvetica,sans-Serif" font-size="10.00">+ attack()</text>
<text text-anchor="start" x="121.5" y="-255.5" font-family="Helvetica,sans-Serif" font-size="10.00">+ get_hp()</text>
<text text-anchor="start" x="121.5" y="-244.5" font-family="Helvetica,sans-Serif" font-size="10.00">+ get_id()</text>
<text text-anchor="start" x="121.5" y="-233.5" font-family="Helvetica,sans-Serif" font-size="10.00">+ get_character_type()</text>
<text text-anchor="start" x="121.5" y="-222.5" font-family="Helvetica,sans-Serif" font-size="10.00">+ print_data()</text>
<text text-anchor="start" x="121.5" y="-211.5" font-family="Helvetica,sans-Serif" font-size="10.00">+ heal()</text>
<text text-anchor="start" x="121.5" y="-200.5" font-family="Helvetica,sans-Serif" font-size="10.00">+ ~Character()</text>
<text text-anchor="start" x="121.5" y="-189.5" font-family="Helvetica,sans-Serif" font-size="10.00">+ convert()</text>
<text text-anchor="start" x="121.5" y="-178.5" font-family="Helvetica,sans-Serif" font-size="10.00"># lower_hp()</text>
<text text-anchor="start" x="121.5" y="-167.5" font-family="Helvetica,sans-Serif" font-size="10.00"># Character()</text>
</g>
<!-- Node2 -->
<g id="node2" class="node"><title>Node2</title>
<g id="a_node2"><a xlink:href="class_bad.html" target="_top" xlink:title="{Bad\n||+ operator Zombie()\l+ Bad()\l+ Bad()\l+ ~Bad()\l+ attack()\l}">
<polygon fill="none" stroke="black" points="0,-11.5 0,-112.5 102,-112.5 102,-11.5 0,-11.5"/>
<text text-anchor="middle" x="51" y="-100.5" font-family="Helvetica,sans-Serif" font-size="10.00">Bad</text>
<polyline fill="none" stroke="black" points="0,-93.5 102,-93.5 "/>
<text text-anchor="middle" x="51" y="-81.5" font-family="Helvetica,sans-Serif" font-size="10.00"> </text>
<polyline fill="none" stroke="black" points="0,-74.5 102,-74.5 "/>
<text text-anchor="start" x="8" y="-62.5" font-family="Helvetica,sans-Serif" font-size="10.00">+ operator Zombie()</text>
<text text-anchor="start" x="8" y="-51.5" font-family="Helvetica,sans-Serif" font-size="10.00">+ Bad()</text>
<text text-anchor="start" x="8" y="-40.5" font-family="Helvetica,sans-Serif" font-size="10.00">+ Bad()</text>
<text text-anchor="start" x="8" y="-29.5" font-family="Helvetica,sans-Serif" font-size="10.00">+ ~Bad()</text>
<text text-anchor="start" x="8" y="-18.5" font-family="Helvetica,sans-Serif" font-size="10.00">+ attack()</text>
</a>
</g>
</g>
<!-- Node1&#45;&gt;Node2 -->
<g id="edge1" class="edge"><title>Node1&#45;&gt;Node2</title>
<path fill="none" stroke="midnightblue" d="M107.906,-153.576C98.9937,-139.39 90.1724,-125.349 82.2318,-112.711"/>
<polygon fill="none" stroke="midnightblue" points="105.177,-155.81 113.46,-162.416 111.104,-152.087 105.177,-155.81"/>
</g>
<!-- Node3 -->
<g id="node3" class="node"><title>Node3</title>
<g id="a_node3"><a xlink:href="class_good.html" target="_top" xlink:title="{Good\n||+ operator Zombie()\l+ Good()\l+ Good()\l+ ~Good()\l+ attack()\l}">
<polygon fill="none" stroke="black" points="120,-11.5 120,-112.5 222,-112.5 222,-11.5 120,-11.5"/>
<text text-anchor="middle" x="171" y="-100.5" font-family="Helvetica,sans-Serif" font-size="10.00">Good</text>
<polyline fill="none" stroke="black" points="120,-93.5 222,-93.5 "/>
<text text-anchor="middle" x="171" y="-81.5" font-family="Helvetica,sans-Serif" font-size="10.00"> </text>
<polyline fill="none" stroke="black" points="120,-74.5 222,-74.5 "/>
<text text-anchor="start" x="128" y="-62.5" font-family="Helvetica,sans-Serif" font-size="10.00">+ operator Zombie()</text>
<text text-anchor="start" x="128" y="-51.5" font-family="Helvetica,sans-Serif" font-size="10.00">+ Good()</text>
<text text-anchor="start" x="128" y="-40.5" font-family="Helvetica,sans-Serif" font-size="10.00">+ Good()</text>
<text text-anchor="start" x="128" y="-29.5" font-family="Helvetica,sans-Serif" font-size="10.00">+ ~Good()</text>
<text text-anchor="start" x="128" y="-18.5" font-family="Helvetica,sans-Serif" font-size="10.00">+ attack()</text>
</a>
</g>
</g>
<!-- Node1&#45;&gt;Node3 -->
<g id="edge2" class="edge"><title>Node1&#45;&gt;Node3</title>
<path fill="none" stroke="midnightblue" d="M171,-150.386C171,-137.245 171,-124.31 171,-112.587"/>
<polygon fill="none" stroke="midnightblue" points="167.5,-150.458 171,-160.458 174.5,-150.458 167.5,-150.458"/>
</g>
<!-- Node4 -->
<g id="node4" class="node"><title>Node4</title>
<g id="a_node4"><a xlink:href="class_zombie.html" target="_top" xlink:title="{Zombie\n||+ operator Good()\l+ operator Bad()\l+ Zombie()\l+ Zombie()\l+ ~Zombie()\l+ attack()\l+ attack()\l}">
<polygon fill="none" stroke="black" points="239.5,-0.5 239.5,-123.5 332.5,-123.5 332.5,-0.5 239.5,-0.5"/>
<text text-anchor="middle" x="286" y="-111.5" font-family="Helvetica,sans-Serif" font-size="10.00">Zombie</text>
<polyline fill="none" stroke="black" points="239.5,-104.5 332.5,-104.5 "/>
<text text-anchor="middle" x="286" y="-92.5" font-family="Helvetica,sans-Serif" font-size="10.00"> </text>
<polyline fill="none" stroke="black" points="239.5,-85.5 332.5,-85.5 "/>
<text text-anchor="start" x="247.5" y="-73.5" font-family="Helvetica,sans-Serif" font-size="10.00">+ operator Good()</text>
<text text-anchor="start" x="247.5" y="-62.5" font-family="Helvetica,sans-Serif" font-size="10.00">+ operator Bad()</text>
<text text-anchor="start" x="247.5" y="-51.5" font-family="Helvetica,sans-Serif" font-size="10.00">+ Zombie()</text>
<text text-anchor="start" x="247.5" y="-40.5" font-family="Helvetica,sans-Serif" font-size="10.00">+ Zombie()</text>
<text text-anchor="start" x="247.5" y="-29.5" font-family="Helvetica,sans-Serif" font-size="10.00">+ ~Zombie()</text>
<text text-anchor="start" x="247.5" y="-18.5" font-family="Helvetica,sans-Serif" font-size="10.00">+ attack()</text>
<text text-anchor="start" x="247.5" y="-7.5" font-family="Helvetica,sans-Serif" font-size="10.00">+ attack()</text>
</a>
</g>
</g>
<!-- Node1&#45;&gt;Node4 -->
<g id="edge3" class="edge"><title>Node1&#45;&gt;Node4</title>
<path fill="none" stroke="midnightblue" d="M232.601,-151.689C238.34,-142.157 244.025,-132.715 249.424,-123.747"/>
<polygon fill="none" stroke="midnightblue" points="229.481,-150.086 227.321,-160.458 235.478,-153.697 229.481,-150.086"/>
</g>
</g>
</svg>
