<?xml version="1.0" encoding="UTF-8" standalone="no"?>
<!DOCTYPE svg PUBLIC "-//W3C//DTD SVG 1.1//EN"
 "http://www.w3.org/Graphics/SVG/1.1/DTD/svg11.dtd">
<!-- Generated by graphviz version 2.36.0 (20140111.2315)
 -->
<!-- Title: Graphical Class Hierarchy Pages: 1 -->
<svg width="274pt" height="66pt"
 viewBox="0.00 0.00 274.00 66.00" xmlns="http://www.w3.org/2000/svg" xmlns:xlink="http://www.w3.org/1999/xlink">
<g id="graph0" class="graph" transform="scale(1 1) rotate(0) translate(4 62)">
<title>Graphical Class Hierarchy</title>
<!-- Node1 -->
<g id="node1" class="node"><title>Node1</title>
<polygon fill="none" stroke="#bfbfbf" points="0.5,-19.5 0.5,-38.5 59.5,-38.5 59.5,-19.5 0.5,-19.5"/>
<text text-anchor="middle" x="30" y="-26.5" font-family="Helvetica,sans-Serif" font-size="10.00">exception</text>
</g>
<!-- Node2 -->
<g id="node2" class="node"><title>Node2</title>
<g id="a_node2"><a xlink:href="class_unrecognized_character_exception.html" target="_top" xlink:title="UnrecognizedCharacterException">
<polygon fill="none" stroke="black" points="99.5,-38.5 99.5,-57.5 262.5,-57.5 262.5,-38.5 99.5,-38.5"/>
<text text-anchor="middle" x="181" y="-45.5" font-family="Helvetica,sans-Serif" font-size="10.00">UnrecognizedCharacterException</text>
</a>
</g>
</g>
<!-- Node1&#45;&gt;Node2 -->
<g id="edge1" class="edge"><title>Node1&#45;&gt;Node2</title>
<path fill="none" stroke="midnightblue" d="M69.7517,-33.9415C80.6813,-35.3352 92.9564,-36.9005 105.241,-38.4669"/>
<polygon fill="midnightblue" stroke="midnightblue" points="70.0911,-30.4565 59.7287,-32.6634 69.2056,-37.4003 70.0911,-30.4565"/>
</g>
<!-- Node3 -->
<g id="node3" class="node"><title>Node3</title>
<g id="a_node3"><a xlink:href="class_unrecognized_conversion_exception.html" target="_top" xlink:title="UnrecognizedConversionException">
<polygon fill="none" stroke="black" points="96,-0.5 96,-19.5 266,-19.5 266,-0.5 96,-0.5"/>
<text text-anchor="middle" x="181" y="-7.5" font-family="Helvetica,sans-Serif" font-size="10.00">UnrecognizedConversionException</text>
</a>
</g>
</g>
<!-- Node1&#45;&gt;Node3 -->
<g id="edge2" class="edge"><title>Node1&#45;&gt;Node3</title>
<path fill="none" stroke="midnightblue" d="M69.7517,-24.0585C80.6813,-22.6648 92.9564,-21.0995 105.241,-19.5331"/>
<polygon fill="midnightblue" stroke="midnightblue" points="69.2056,-20.5997 59.7287,-25.3366 70.0911,-27.5435 69.2056,-20.5997"/>
</g>
</g>
</svg>
