<?xml version="1.0" encoding="UTF-8" standalone="no"?>
<!DOCTYPE svg PUBLIC "-//W3C//DTD SVG 1.1//EN"
 "http://www.w3.org/Graphics/SVG/1.1/DTD/svg11.dtd">
<!-- Generated by graphviz version 2.36.0 (20140111.2315)
 -->
<!-- Title: Graphical Class Hierarchy Pages: 1 -->
<svg width="154pt" height="104pt"
 viewBox="0.00 0.00 154.00 104.00" xmlns="http://www.w3.org/2000/svg" xmlns:xlink="http://www.w3.org/1999/xlink">
<g id="graph0" class="graph" transform="scale(1 1) rotate(0) translate(4 100)">
<title>Graphical Class Hierarchy</title>
<!-- Node1 -->
<g id="node1" class="node"><title>Node1</title>
<g id="a_node1"><a xlink:href="class_character.html" target="_top" xlink:title="Character">
<polygon fill="none" stroke="black" points="0.5,-38.5 0.5,-57.5 59.5,-57.5 59.5,-38.5 0.5,-38.5"/>
<text text-anchor="middle" x="30" y="-45.5" font-family="Helvetica,sans-Serif" font-size="10.00">Character</text>
</a>
</g>
</g>
<!-- Node2 -->
<g id="node2" class="node"><title>Node2</title>
<g id="a_node2"><a xlink:href="class_bad.html" target="_top" xlink:title="Bad">
<polygon fill="none" stroke="black" points="104,-76.5 104,-95.5 138,-95.5 138,-76.5 104,-76.5"/>
<text text-anchor="middle" x="121" y="-83.5" font-family="Helvetica,sans-Serif" font-size="10.00">Bad</text>
</a>
</g>
</g>
<!-- Node1&#45;&gt;Node2 -->
<g id="edge1" class="edge"><title>Node1&#45;&gt;Node2</title>
<path fill="none" stroke="midnightblue" d="M62.7031,-61.5362C76.5831,-67.4624 92.2784,-74.1638 103.728,-79.0523"/>
<polygon fill="midnightblue" stroke="midnightblue" points="64.0296,-58.2969 53.4585,-57.589 61.2809,-64.7347 64.0296,-58.2969"/>
</g>
<!-- Node3 -->
<g id="node3" class="node"><title>Node3</title>
<g id="a_node3"><a xlink:href="class_good.html" target="_top" xlink:title="Good">
<polygon fill="none" stroke="black" points="101,-38.5 101,-57.5 141,-57.5 141,-38.5 101,-38.5"/>
<text text-anchor="middle" x="121" y="-45.5" font-family="Helvetica,sans-Serif" font-size="10.00">Good</text>
</a>
</g>
</g>
<!-- Node1&#45;&gt;Node3 -->
<g id="edge2" class="edge"><title>Node1&#45;&gt;Node3</title>
<path fill="none" stroke="midnightblue" d="M69.7809,-48C80.5822,-48 91.8405,-48 100.953,-48"/>
<polygon fill="midnightblue" stroke="midnightblue" points="69.6501,-44.5001 59.6501,-48 69.65,-51.5001 69.6501,-44.5001"/>
</g>
<!-- Node4 -->
<g id="node4" class="node"><title>Node4</title>
<g id="a_node4"><a xlink:href="class_zombie.html" target="_top" xlink:title="Zombie">
<polygon fill="none" stroke="black" points="96.5,-0.5 96.5,-19.5 145.5,-19.5 145.5,-0.5 96.5,-0.5"/>
<text text-anchor="middle" x="121" y="-7.5" font-family="Helvetica,sans-Serif" font-size="10.00">Zombie</text>
</a>
</g>
</g>
<!-- Node1&#45;&gt;Node4 -->
<g id="edge3" class="edge"><title>Node1&#45;&gt;Node4</title>
<path fill="none" stroke="midnightblue" d="M62.7558,-34.4413C74.2619,-29.5286 87.0093,-24.0859 97.5487,-19.5859"/>
<polygon fill="midnightblue" stroke="midnightblue" points="61.2809,-31.2653 53.4585,-38.411 64.0296,-37.7031 61.2809,-31.2653"/>
</g>
</g>
</svg>
